<?xml version="1.0" encoding="UTF-8" standalone="no"?>
<svg width="135px" height="41px" viewBox="0 0 135 41" version="1.1" xmlns="http://www.w3.org/2000/svg" xmlns:xlink="http://www.w3.org/1999/xlink">
    <!-- Generator: sketchtool 3.8.3 (29802) - http://www.bohemiancoding.com/sketch -->
    <title>48192B10-0A10-4F3E-84AB-0786181F140F</title>
    <desc>Created with sketchtool.</desc>
    <defs>
        <linearGradient x1="50%" y1="0%" x2="50%" y2="100%" id="linearGradient-1">
            <stop stop-color="#83CBB4" offset="0%"></stop>
            <stop stop-color="#52B1B1" offset="100%"></stop>
        </linearGradient>
    </defs>
    <g id="NAVIGATION-BARS" stroke="none" stroke-width="1" fill="none" fill-rule="evenodd">
        <g id="Beta-logo" transform="translate(-11.000000, -7.000000)">
            <g id="Group" transform="translate(11.000000, 7.000000)">
                <path d="M35.099287,22.1984326 L35.099287,0.654576515 C35.099287,0.470750758 34.9496263,0.321773485 34.7649574,0.321773485 L30.4519305,0.321773485 C30.2672615,0.321773485 30.1176009,0.470750758 30.1176009,0.654576515 L30.1176009,22.1984326 C30.1176009,22.3822583 30.2672615,22.5312356 30.4519305,22.5312356 L34.7649574,22.5312356 C34.9496263,22.5312356 35.099287,22.3822583 35.099287,22.1984326 M44.9681367,22.1984326 L44.9681367,0.654576515 C44.9681367,0.470750758 44.8184761,0.321773485 44.6338071,0.321773485 L40.3207802,0.321773485 C40.1361112,0.321773485 39.9864506,0.470750758 39.9864506,0.654576515 L39.9864506,22.1984326 C39.9864506,22.3822583 40.1361112,22.5312356 40.3207802,22.5312356 L44.6338071,22.5312356 C44.8184761,22.5312356 44.9681367,22.3822583 44.9681367,22.1984326 M66.250754,11.6640841 L66.250754,16.9634932 C66.250754,17.0896447 66.1798621,17.2062129 66.0664351,17.2621447 C64.6965589,17.9390765 63.1983772,18.3748568 61.9312505,18.3748568 C58.0215196,18.3748568 54.9631915,15.3608114 54.9631915,11.4264174 C54.9631915,7.52390985 57.9900121,4.50986439 61.899743,4.50986439 C63.9335523,4.50986439 66.0809636,5.36626591 67.695723,6.7544553 C67.8387321,6.87729621 68.0573591,6.85185682 68.1734118,6.70340227 L70.5634308,3.64997803 C70.6731819,3.50971288 70.6544525,3.30637197 70.5172198,3.19259167 C68.2838631,1.3437053 65.062396,0.163038636 61.899743,0.163038636 C55.0262065,0.163038636 49.8553003,5.01743258 49.8553003,11.4264174 C49.8553003,17.8672886 54.9315089,22.7533947 61.6160005,22.7533947 C64.6142894,22.7533947 68.0977938,21.6250008 70.4317995,19.9662129 C70.5196704,19.9038341 70.5704325,19.802425 70.5704325,19.6950917 L70.5704325,11.6640841 C70.5704325,11.4802583 70.4205968,11.3312811 70.2361029,11.3312811 L66.5850836,11.3312811 C66.4004146,11.3312811 66.250754,11.4802583 66.250754,11.6640841 M80.5033919,17.6613341 L80.5033919,0.495841667 C80.5033919,0.312015909 80.3537313,0.163038636 80.1690623,0.163038636 L75.8560354,0.163038636 C75.6713665,0.163038636 75.5217058,0.312015909 75.5217058,0.495841667 L75.5217058,22.0396977 C75.5217058,22.2236977 75.6713665,22.372675 75.8560354,22.372675 L89.6279645,22.372675 C89.8126334,22.372675 89.9622941,22.2236977 89.9622941,22.0396977 L89.9622941,18.3269402 C89.9622941,18.1431144 89.8126334,17.9941371 89.6279645,17.9941371 L80.8377215,17.9941371 C80.6530526,17.9941371 80.5033919,17.8451598 80.5033919,17.6613341 M111.478515,3.98661439 L111.478515,0.495841667 C111.478515,0.312015909 111.328855,0.163038636 111.144186,0.163038636 L95.0074437,0.163038636 C94.8227747,0.163038636 94.6731141,0.312015909 94.6731141,0.495841667 L94.6731141,22.0396977 C94.6731141,22.2236977 94.8227747,22.372675 95.0074437,22.372675 L111.490943,22.372675 C111.675612,22.372675 111.825273,22.2236977 111.825273,22.0396977 L111.825273,18.5490992 C111.825273,18.3652735 111.675612,18.2162962 111.490943,18.2162962 L99.9891298,18.2162962 C99.8044608,18.2162962 99.6548002,18.0673189 99.6548002,17.8834932 L99.6548002,13.6312811 C99.6548002,13.4474553 99.8044608,13.298478 99.9891298,13.298478 L109.977533,13.298478 C110.162202,13.298478 110.311863,13.1495008 110.311863,12.965675 L110.311863,9.47490227 C110.311863,9.29107652 110.162202,9.14209924 109.977533,9.14209924 L99.9891298,9.14209924 C99.8044608,9.14209924 99.6548002,8.99312197 99.6548002,8.80929621 L99.6548002,4.65222045 C99.6548002,4.4683947 99.8044608,4.31941742 99.9891298,4.31941742 L111.144186,4.31941742 C111.328855,4.31941742 111.478515,4.17044015 111.478515,3.98661439" id="Fill-1" fill="#2A414D"></path>
                <path d="M12.1453718,13.5834167 C12.2644001,13.846 12.3802777,14.1127652 12.4931796,14.3833636 C12.5647716,14.5549924 12.8105301,14.553947 12.8807218,14.3817955 C12.994849,14.1012652 13.1121269,13.8250909 13.2323806,13.5529242 C13.4210755,13.1262045 13.6228985,12.7198712 13.8374996,12.3334015 L19.5643382,1.1142803 C19.6663875,0.921393939 19.7714125,0.771371212 19.8783629,0.664734848 C19.9858385,0.558098485 20.105392,0.479340909 20.2384237,0.428462121 C20.3709302,0.377757576 20.5214661,0.347265152 20.6900312,0.336984848 C20.8584213,0.32705303 21.0548181,0.321651515 21.2795716,0.321651515 L25.0202122,0.321651515 C25.1362648,0.321651515 25.2304372,0.415393939 25.2304372,0.530916667 L25.2304372,22.3220227 C25.2304372,22.4375455 25.1362648,22.5312879 25.0202122,22.5312879 L20.8773258,22.5312879 C20.7610981,22.5312879 20.6671007,22.4375455 20.6671007,22.3220227 L20.6671007,9.75740152 C20.6671007,9.43470455 20.6753277,9.09824242 20.6919567,8.74801515 C20.7026342,8.52289394 20.3991119,8.44047727 20.2954873,8.64085606 L14.8481903,19.1624848 C14.6643965,19.5182879 14.4167126,19.7874924 14.1053134,19.970447 C13.7940893,20.1532273 13.4391048,20.2447045 13.04106,20.2447045 L12.3368673,20.2447045 C11.9386475,20.2447045 11.5838381,20.1532273 11.2724389,19.970447 C10.9610398,19.7874924 10.7133558,19.5182879 10.529562,19.1624848 L5.07578852,8.66856061 C4.9711136,8.46696212 4.66601596,8.55234091 4.67949417,8.77885606 C4.67966921,8.78234091 4.68001929,8.786 4.68019433,8.78948485 C4.70049917,9.14006061 4.71065158,9.46275758 4.71065158,9.75740152 L4.71065158,22.3220227 C4.71065158,22.4375455 4.6166542,22.5312879 4.50060157,22.5312879 L0.357540129,22.5312879 C0.241487497,22.5312879 0.147315075,22.4375455 0.147315075,22.3220227 L0.147315075,0.530916667 C0.147315075,0.415393939 0.241487497,0.321651515 0.357540129,0.321651515 L4.09818076,0.321651515 C4.32258419,0.321651515 4.51933103,0.32705303 4.68772112,0.336984848 C4.85628626,0.347265152 5.0068221,0.377757576 5.13950369,0.428462121 C5.27201024,0.479340909 5.39191379,0.558098485 5.49938938,0.664734848 C5.60668993,0.771371212 5.71101477,0.921393939 5.81341415,1.1142803 L11.5558314,12.3792273 C11.75993,12.7655227 11.9563267,13.1669773 12.1453718,13.5834167" id="Fill-10" fill="#2A414D"></path>
                <path d="M134.35729,13.2633516 C134.658385,13.2633516 134.902471,13.0160397 134.902471,12.7205072 L134.902471,9.65386774 C134.902471,9.35406305 134.655196,9.11102333 134.35729,9.11102333 L128.499874,9.11102333 C128.198779,9.11102333 127.954693,8.8647174 127.954693,8.56797961 L127.954693,2.73351992 C127.954693,2.43360515 127.71754,2.19047619 127.401046,2.19047619 L124.526574,2.19047619 C124.220803,2.19047619 123.972926,2.43678213 123.972926,2.73351992 L123.972926,8.56797961 C123.972926,8.86789438 123.725651,9.11102333 123.427746,9.11102333 L117.570329,9.11102333 C117.269234,9.11102333 117.025149,9.35833527 117.025149,9.65386774 L117.025149,12.7205072 C117.025149,13.0203119 117.272424,13.2633516 117.570329,13.2633516 L123.427746,13.2633516 C123.728841,13.2633516 123.972926,13.5082087 123.972926,13.803201 L123.972926,19.6033403 C123.972926,19.9014909 124.210079,20.1431897 124.526574,20.1431897 L127.401046,20.1431897 C127.706817,20.1431897 127.954693,19.8983326 127.954693,19.6033403 L127.954693,13.803201 C127.954693,13.5050504 128.201968,13.2633516 128.499874,13.2633516 L134.35729,13.2633516 Z" id="Path" fill="url(#linearGradient-1)"></path>
                <path d="M0,40.464 L0,29 L3.656,29 C4.36000352,29 4.96666412,29.0693326 5.476,29.208 C5.98533588,29.3466674 6.40399836,29.5439987 6.732,29.8 C7.06000164,30.0560013 7.30133256,30.3693315 7.456,30.74 C7.61066744,31.1106685 7.688,31.5279977 7.688,31.992 C7.688,32.2746681 7.64400044,32.5466654 7.556,32.808 C7.46799956,33.0693346 7.33600088,33.3119989 7.16,33.536 C6.98399912,33.7600011 6.76133468,33.9599991 6.492,34.136 C6.22266532,34.3120009 5.90666848,34.4559994 5.544,34.568 C6.38133752,34.7333342 7.0133312,35.0346645 7.44,35.472 C7.8666688,35.9093355 8.08,36.4853298 8.08,37.2 C8.08,37.6853358 7.99066756,38.127998 7.812,38.528 C7.63333244,38.928002 7.37200172,39.2719986 7.028,39.56 C6.68399828,39.8480014 6.26133584,40.0706659 5.76,40.228 C5.25866416,40.3853341 4.6880032,40.464 4.048,40.464 L0,40.464 Z M1.544,35.24 L1.544,39.232 L4.024,39.232 C4.46666888,39.232 4.8479984,39.1813338 5.168,39.08 C5.4880016,38.9786662 5.75066564,38.8360009 5.956,38.652 C6.16133436,38.4679991 6.31199952,38.2493346 6.408,37.996 C6.50400048,37.7426654 6.552,37.4640015 6.552,37.16 C6.552,36.567997 6.34133544,36.1000017 5.92,35.756 C5.49866456,35.4119983 4.86667088,35.24 4.024,35.24 L1.544,35.24 Z M1.544,34.136 L3.592,34.136 C4.02933552,34.136 4.40933172,34.0880005 4.732,33.992 C5.05466828,33.8959995 5.32133228,33.7626675 5.532,33.592 C5.74266772,33.4213325 5.89866616,33.2146679 6,32.972 C6.10133384,32.7293321 6.152,32.4640014 6.152,32.176 C6.152,31.4986633 5.94933536,31.0040016 5.544,30.692 C5.13866464,30.3799984 4.5093376,30.224 3.656,30.224 L1.544,30.224 L1.544,34.136 Z M18.7618462,29 L18.7618462,30.264 L13.2498462,30.264 L13.2498462,34.072 L17.7138462,34.072 L17.7138462,35.288 L13.2498462,35.288 L13.2498462,39.2 L18.7698462,39.2 L18.7618462,40.464 L11.6978462,40.464 L11.6978462,29 L18.7618462,29 Z M31.0436924,29 L31.0436924,30.304 L27.3316924,30.304 L27.3316924,40.464 L25.7876924,40.464 L25.7876924,30.304 L22.0676924,30.304 L22.0676924,29 L31.0436924,29 Z M43.2935386,40.464 L42.0935386,40.464 C41.9548712,40.464 41.8428723,40.4293337 41.7575386,40.36 C41.6722048,40.2906663 41.6082055,40.2026672 41.5655386,40.096 L40.4935386,37.328 L35.3495386,37.328 L34.2775386,40.096 C34.2455384,40.1920005 34.1842057,40.277333 34.0935386,40.352 C34.0028715,40.426667 33.8908726,40.464 33.7575386,40.464 L32.5575386,40.464 L37.1415386,29 L38.7095386,29 L43.2935386,40.464 Z M35.7815386,36.208 L40.0615386,36.208 L38.2615386,31.544 C38.2028716,31.4053326 38.1455389,31.2453342 38.0895386,31.064 C38.0335383,30.8826658 37.9762055,30.688001 37.9175386,30.48 C37.864205,30.688001 37.8095389,30.8839991 37.7535386,31.068 C37.6975383,31.2520009 37.6402055,31.4133326 37.5815386,31.552 L35.7815386,36.208 Z" id="BETA" fill="#9B9B9B"></path>
            </g>
        </g>
    </g>
</svg>