<?xml version="1.0" encoding="UTF-8" standalone="no"?>
<svg width="106px" height="56px" viewBox="0 0 106 56" version="1.1" xmlns="http://www.w3.org/2000/svg" xmlns:xlink="http://www.w3.org/1999/xlink">
    <!-- Generator: sketchtool 3.8.3 (29802) - http://www.bohemiancoding.com/sketch -->
    <title>2B7E437C-252E-499E-A426-E6D56519051C</title>
    <desc>Created with sketchtool.</desc>
    <defs>
        <filter x="-50%" y="-50%" width="200%" height="200%" filterUnits="objectBoundingBox" id="filter-1">
            <feOffset dx="0" dy="1" in="SourceAlpha" result="shadowOffsetOuter1"></feOffset>
            <feColorMatrix values="0 0 0 0 0.466836735   0 0 0 0 0.466836735   0 0 0 0 0.466836735  0 0 0 0.5 0" type="matrix" in="shadowOffsetOuter1" result="shadowMatrixOuter1"></feColorMatrix>
            <feMerge>
                <feMergeNode in="shadowMatrixOuter1"></feMergeNode>
                <feMergeNode in="SourceGraphic"></feMergeNode>
            </feMerge>
        </filter>
        <linearGradient x1="50%" y1="0%" x2="50%" y2="100%" id="linearGradient-2">
            <stop stop-color="#A7D8B3" offset="0%"></stop>
            <stop stop-color="#54B8B7" offset="100%"></stop>
        </linearGradient>
    </defs>
    <g id="Symbols" stroke="none" stroke-width="1" fill="none" fill-rule="evenodd">
        <g id="logged-in-nav-bar-beta" transform="translate(-66.000000, -11.000000)">
            <g id="ABOVE-THE-FOLD">
                <g>
                    <g id="NAV-BAR">
                        <g id="miigle-logo" transform="translate(66.000000, 11.000000)">
                            <g id="Group-7" filter="url(#filter-1)">
                                <circle id="Oval-6" fill="#1D2E39" cx="27.5" cy="27.5" r="27.5"></circle>
                                <g id="LOGO" transform="translate(11.261905, 18.333333)">
                                    <path d="M9.67222713,10.7674208 C9.76811061,10.9806825 9.86154038,11.1971612 9.95261081,11.4168568 C10.0103674,11.5562244 10.2084574,11.5554675 10.2649871,11.4156268 C10.3570013,11.187889 10.4514692,10.9635573 10.5484851,10.7427263 C10.7007096,10.3962469 10.8633151,10.066325 11.0363961,9.75258231 L15.6530536,0.643541548 C15.7353472,0.486954039 15.8200003,0.365184779 15.9062577,0.278517614 C15.9927982,0.191945064 16.0892479,0.127985453 16.1963618,0.0866387809 C16.303287,0.0455759536 16.4246513,0.0206922588 16.5604548,0.0123661556 C16.6962583,0.00432389678 16.854617,-2.83844428e-05 17.0357198,-2.83844428e-05 L20.0513307,-2.83844428e-05 C20.1448548,-2.83844428e-05 20.2207311,0.0760419222 20.2207311,0.169899813 L20.2207311,17.8624907 C20.2207311,17.956254 20.1448548,18.0323243 20.0513307,18.0323243 L16.7114524,18.0323243 C16.6178339,18.0323243 16.5419576,17.956254 16.5419576,17.8624907 L16.5419576,7.66093272 C16.5419576,7.39903893 16.5486581,7.12588598 16.5620591,6.84156847 C16.5706471,6.65877266 16.326031,6.59178538 16.2424161,6.75442823 L11.8510282,15.2971994 C11.7028618,15.5860584 11.5033562,15.8046186 11.2523227,15.9530692 C11.0012892,16.1016145 10.7151487,16.1758871 10.3941844,16.1758871 L9.82652781,16.1758871 C9.50556353,16.1758871 9.21951744,16.1016145 8.96848392,15.9530692 C8.7174504,15.8046186 8.51785044,15.5860584 8.36968404,15.2971994 L3.97310563,6.77694656 C3.88864134,6.61326294 3.64279836,6.68261559 3.65365132,6.86654678 C3.65384006,6.86938523 3.65393444,6.87222367 3.65412318,6.87506212 C3.6704498,7.15975808 3.67875467,7.4218411 3.67875467,7.66093272 L3.67875467,17.8624907 C3.67875467,17.956254 3.60287837,18.0323243 3.50935423,18.0323243 L0.169475938,18.0323243 C0.0758574222,18.0323243 -1.88747007e-05,17.956254 -1.88747007e-05,17.8624907 L-1.88747007e-05,0.169899813 C-1.88747007e-05,0.0760419222 0.0758574222,-2.83844428e-05 0.169475938,-2.83844428e-05 L3.18508687,-2.83844428e-05 C3.3659065,-2.83844428e-05 3.52445399,0.00432389678 3.66025746,0.0123661556 C3.79615531,0.0206922588 3.91751963,0.0455759536 4.02435044,0.0866387809 C4.13127562,0.127985453 4.22800846,0.191945064 4.31454896,0.278517614 C4.40108947,0.365184779 4.48517626,0.486954039 4.5676587,0.643541548 L9.19696217,9.78976593 C9.36145519,10.1033194 9.51981393,10.4292674 9.67222713,10.7674208" id="Fill-1" fill="#FEFEFE"></path>
                                    <path d="M29.0411713,3.78583182 L29.0411713,7.63059921 C29.0411713,7.93109585 29.2841831,8.17463437 29.5839133,8.17463437 L33.1757689,8.17463437 C33.4754991,8.17463437 33.7184165,8.4182675 33.7184165,8.71876414 L33.7184165,9.30196982 C33.7184165,9.60246645 33.4754991,9.84600497 33.1757689,9.84600497 L29.5839133,9.84600497 C29.2841831,9.84600497 29.0411713,10.0896381 29.0411713,10.3901347 L29.0411713,14.2465398 C29.0411713,14.5470364 28.7981596,14.7906695 28.4984293,14.7906695 L27.7894012,14.7906695 C27.4896709,14.7906695 27.2466592,14.5470364 27.2466592,14.2465398 L27.2466592,10.3901347 C27.2466592,10.0896381 27.0036474,9.84600497 26.7039171,9.84600497 L23.1353718,9.84600497 C22.8356416,9.84600497 22.5926298,9.60246645 22.5926298,9.30196982 L22.5926298,8.71876414 C22.5926298,8.4182675 22.8356416,8.17463437 23.1353718,8.17463437 L26.7039171,8.17463437 C27.0036474,8.17463437 27.2466592,7.93109585 27.2466592,7.63059921 L27.2466592,3.78583182 C27.2466592,3.48533519 27.4896709,3.24170206 27.7894012,3.24170206 L28.4984293,3.24170206 C28.7981596,3.24170206 29.0411713,3.48533519 29.0411713,3.78583182" id="Fill-4" fill="url(#linearGradient-2)"></path>
                                </g>
                            </g>
                            <path d="M62,33.464 L62,22 L65.656,22 C66.3600035,22 66.9666641,22.0693326 67.476,22.208 C67.9853359,22.3466674 68.4039984,22.5439987 68.732,22.8 C69.0600016,23.0560013 69.3013326,23.3693315 69.456,23.74 C69.6106674,24.1106685 69.688,24.5279977 69.688,24.992 C69.688,25.2746681 69.6440004,25.5466654 69.556,25.808 C69.4679996,26.0693346 69.3360009,26.3119989 69.16,26.536 C68.9839991,26.7600011 68.7613347,26.9599991 68.492,27.136 C68.2226653,27.3120009 67.9066685,27.4559994 67.544,27.568 C68.3813375,27.7333342 69.0133312,28.0346645 69.44,28.472 C69.8666688,28.9093355 70.08,29.4853298 70.08,30.2 C70.08,30.6853358 69.9906676,31.127998 69.812,31.528 C69.6333324,31.928002 69.3720017,32.2719986 69.028,32.56 C68.6839983,32.8480014 68.2613358,33.0706659 67.76,33.228 C67.2586642,33.3853341 66.6880032,33.464 66.048,33.464 L62,33.464 Z M63.544,28.24 L63.544,32.232 L66.024,32.232 C66.4666689,32.232 66.8479984,32.1813338 67.168,32.08 C67.4880016,31.9786662 67.7506656,31.8360009 67.956,31.652 C68.1613344,31.4679991 68.3119995,31.2493346 68.408,30.996 C68.5040005,30.7426654 68.552,30.4640015 68.552,30.16 C68.552,29.567997 68.3413354,29.1000017 67.92,28.756 C67.4986646,28.4119983 66.8666709,28.24 66.024,28.24 L63.544,28.24 Z M63.544,27.136 L65.592,27.136 C66.0293355,27.136 66.4093317,27.0880005 66.732,26.992 C67.0546683,26.8959995 67.3213323,26.7626675 67.532,26.592 C67.7426677,26.4213325 67.8986662,26.2146679 68,25.972 C68.1013338,25.7293321 68.152,25.4640014 68.152,25.176 C68.152,24.4986633 67.9493354,24.0040016 67.544,23.692 C67.1386646,23.3799984 66.5093376,23.224 65.656,23.224 L63.544,23.224 L63.544,27.136 Z M80.7618462,22 L80.7618462,23.264 L75.2498462,23.264 L75.2498462,27.072 L79.7138462,27.072 L79.7138462,28.288 L75.2498462,28.288 L75.2498462,32.2 L80.7698462,32.2 L80.7618462,33.464 L73.6978462,33.464 L73.6978462,22 L80.7618462,22 Z M93.0436924,22 L93.0436924,23.304 L89.3316924,23.304 L89.3316924,33.464 L87.7876924,33.464 L87.7876924,23.304 L84.0676924,23.304 L84.0676924,22 L93.0436924,22 Z M105.293539,33.464 L104.093539,33.464 C103.954871,33.464 103.842872,33.4293337 103.757539,33.36 C103.672205,33.2906663 103.608205,33.2026672 103.565539,33.096 L102.493539,30.328 L97.3495386,30.328 L96.2775386,33.096 C96.2455384,33.1920005 96.1842057,33.277333 96.0935386,33.352 C96.0028715,33.426667 95.8908726,33.464 95.7575386,33.464 L94.5575386,33.464 L99.1415386,22 L100.709539,22 L105.293539,33.464 Z M97.7815386,29.208 L102.061539,29.208 L100.261539,24.544 C100.202872,24.4053326 100.145539,24.2453342 100.089539,24.064 C100.033538,23.8826658 99.9762055,23.688001 99.9175386,23.48 C99.864205,23.688001 99.8095389,23.8839991 99.7535386,24.068 C99.6975383,24.2520009 99.6402055,24.4133326 99.5815386,24.552 L97.7815386,29.208 Z" id="BETA" fill="#9B9B9B"></path>
                        </g>
                    </g>
                </g>
            </g>
        </g>
    </g>
</svg>