<?xml version="1.0" encoding="UTF-8" standalone="no"?>
<svg width="203px" height="35px" viewBox="0 0 203 35" version="1.1" xmlns="http://www.w3.org/2000/svg" xmlns:xlink="http://www.w3.org/1999/xlink">
    <!-- Generator: sketchtool 3.8.3 (29802) - http://www.bohemiancoding.com/sketch -->
    <title>0C9A29BA-C333-4885-BF7F-CB396B82A0C3</title>
    <desc>Created with sketchtool.</desc>
    <defs>
        <linearGradient x1="50%" y1="0%" x2="50%" y2="100%" id="linearGradient-1">
            <stop stop-color="#83CBB4" offset="0%"></stop>
            <stop stop-color="#52B1B1" offset="100%"></stop>
        </linearGradient>
    </defs>
    <g id="Symbols" stroke="none" stroke-width="1" fill="none" fill-rule="evenodd">
        <g id="FOOTER" transform="translate(-219.000000, -116.000000)">
            <g id="Logo" transform="translate(219.000000, 116.000000)">
                <path d="M52.7789278,33.7802235 L52.7789278,0.996094697 C52.7789278,0.716359848 52.5538826,0.489655303 52.2761952,0.489655303 L45.7906806,0.489655303 C45.5129932,0.489655303 45.287948,0.716359848 45.287948,0.996094697 L45.287948,33.7802235 C45.287948,34.0599583 45.5129932,34.2866629 45.7906806,34.2866629 L52.2761952,34.2866629 C52.5538826,34.2866629 52.7789278,34.0599583 52.7789278,33.7802235 M67.6187537,33.7802235 L67.6187537,0.996094697 C67.6187537,0.716359848 67.3937085,0.489655303 67.116021,0.489655303 L60.6305065,0.489655303 C60.3528191,0.489655303 60.1277738,0.716359848 60.1277738,0.996094697 L60.1277738,33.7802235 C60.1277738,34.0599583 60.3528191,34.2866629 60.6305065,34.2866629 L67.116021,34.2866629 C67.3937085,34.2866629 67.6187537,34.0599583 67.6187537,33.7802235 M99.6215041,17.7496932 L99.6215041,25.8140114 C99.6215041,26.0059811 99.5149038,26.1833674 99.3443432,26.2684811 C97.2844553,27.2985947 95.0316339,27.9617386 93.1262508,27.9617386 C87.247174,27.9617386 82.6483546,23.3751477 82.6483546,17.3880265 C82.6483546,11.449428 87.199796,6.86283712 93.0788729,6.86283712 C96.1371193,6.86283712 99.3661897,8.16605682 101.794309,10.2785189 C102.009353,10.4654508 102.338103,10.4267386 102.512612,10.2008295 L106.106492,5.55431439 C106.271525,5.34086742 106.243362,5.03143561 106.037005,4.85829167 C102.678698,2.04476894 97.8345659,0.248102273 93.0788729,0.248102273 C82.7431105,0.248102273 74.9675997,7.63522348 74.9675997,17.3880265 C74.9675997,27.1893523 82.6007134,34.6247311 92.6522081,34.6247311 C97.1607462,34.6247311 102.398905,32.9076098 105.908558,30.3833674 C106.04069,30.2884432 106.117021,30.134125 106.117021,29.9707917 L106.117021,17.7496932 C106.117021,17.4699583 105.891712,17.2432538 105.614288,17.2432538 L100.124237,17.2432538 C99.8465494,17.2432538 99.6215041,17.4699583 99.6215041,17.7496932 M121.053249,26.8759432 L121.053249,0.754541667 C121.053249,0.474806818 120.828203,0.248102273 120.550516,0.248102273 L114.065001,0.248102273 C113.787314,0.248102273 113.562269,0.474806818 113.562269,0.754541667 L113.562269,33.5386705 C113.562269,33.8186705 113.787314,34.045375 114.065001,34.045375 L134.773902,34.045375 C135.05159,34.045375 135.276635,33.8186705 135.276635,33.5386705 L135.276635,27.888822 C135.276635,27.6090871 135.05159,27.3823826 134.773902,27.3823826 L121.555981,27.3823826 C121.278294,27.3823826 121.053249,27.155678 121.053249,26.8759432 M167.630656,6.06658712 L167.630656,0.754541667 C167.630656,0.474806818 167.405611,0.248102273 167.127924,0.248102273 L142.863045,0.248102273 C142.585358,0.248102273 142.360312,0.474806818 142.360312,0.754541667 L142.360312,33.5386705 C142.360312,33.8186705 142.585358,34.045375 142.863045,34.045375 L167.649344,34.045375 C167.927032,34.045375 168.152077,33.8186705 168.152077,33.5386705 L168.152077,28.2268902 C168.152077,27.9471553 167.927032,27.7204508 167.649344,27.7204508 L150.354025,27.7204508 C150.076337,27.7204508 149.851292,27.4937462 149.851292,27.2140114 L149.851292,20.7432538 C149.851292,20.4635189 150.076337,20.2368144 150.354025,20.2368144 L165.373624,20.2368144 C165.651311,20.2368144 165.876356,20.0101098 165.876356,19.730375 L165.876356,14.4183295 C165.876356,14.1385947 165.651311,13.9118902 165.373624,13.9118902 L150.354025,13.9118902 C150.076337,13.9118902 149.851292,13.6851856 149.851292,13.4054508 L149.851292,7.07946591 C149.851292,6.79973106 150.076337,6.57302652 150.354025,6.57302652 L167.127924,6.57302652 C167.405611,6.57302652 167.630656,6.34632197 167.630656,6.06658712" id="Fill-1" fill="#FFFFFF"></path>
                <path d="M18.2630405,20.6704167 C18.4420238,21.07 18.6162694,21.475947 18.7860404,21.8877273 C18.8936936,22.1489015 19.2632416,22.1473106 19.3687891,21.8853409 C19.5404026,21.458447 19.7167538,21.0381818 19.8975797,20.6240152 C20.1813209,19.9746591 20.484803,19.3563258 20.8074995,18.7682197 L29.4189678,1.69564394 C29.5724197,1.40212121 29.7303462,1.17382576 29.891168,1.01155303 C30.0527794,0.849280303 30.2325524,0.729431818 30.4325926,0.652007576 C30.6318432,0.574848485 30.8582045,0.52844697 31.1116765,0.51280303 C31.3648853,0.497689394 31.6602079,0.489469697 31.9981706,0.489469697 L37.6229857,0.489469697 C37.7974945,0.489469697 37.9391019,0.632121212 37.9391019,0.807916667 L37.9391019,33.9682955 C37.9391019,34.1440909 37.7974945,34.2867424 37.6229857,34.2867424 L31.3933121,34.2867424 C31.2185401,34.2867424 31.0771959,34.1440909 31.0771959,33.9682955 L31.0771959,14.8482197 C31.0771959,14.3571591 31.0895668,13.8451515 31.1145719,13.312197 C31.1306277,12.9696212 30.6742202,12.8442045 30.5183994,13.1491288 L22.3272787,29.160303 C22.0509074,29.7017424 21.6784641,30.1114015 21.210212,30.3898106 C20.7422232,30.6679545 20.2084316,30.8071591 19.6098902,30.8071591 L18.5509931,30.8071591 C17.9521885,30.8071591 17.4186602,30.6679545 16.9504081,30.3898106 C16.4821561,30.1114015 16.1097128,29.7017424 15.8333414,29.160303 L7.632482,13.1912879 C7.47508193,12.8845076 7.01630547,13.0144318 7.03657271,13.3591288 C7.03683592,13.3644318 7.03736234,13.37 7.03762555,13.375303 C7.06815801,13.9087879 7.08342423,14.3998485 7.08342423,14.8482197 L7.08342423,33.9682955 C7.08342423,34.1440909 6.94208002,34.2867424 6.76757125,34.2867424 L0.537634416,34.2867424 C0.363125644,34.2867424 0.221518224,34.1440909 0.221518224,33.9682955 L0.221518224,0.807916667 C0.221518224,0.632121212 0.363125644,0.489469697 0.537634416,0.489469697 L6.16244958,0.489469697 C6.49988585,0.489469697 6.79573481,0.497689394 7.04894362,0.51280303 C7.30241563,0.52844697 7.52877694,0.574848485 7.72829074,0.652007576 C7.92754132,0.729431818 8.10784073,0.849280303 8.26945218,1.01155303 C8.43080041,1.17382576 8.58767405,1.40212121 8.74165238,1.69564394 L17.3765465,18.8379545 C17.6834503,19.4257955 17.9787728,20.0367045 18.2630405,20.6704167" id="Fill-10" fill="#FFFFFF"></path>
                <path d="M202.033555,20.1833612 C202.486312,20.1833612 202.853345,19.8070169 202.853345,19.3572936 L202.853345,14.6906683 C202.853345,14.2344438 202.481516,13.8646007 202.033555,13.8646007 L193.225736,13.8646007 C192.772979,13.8646007 192.405946,13.4897873 192.405946,13.0382298 L192.405946,4.15970422 C192.405946,3.70331218 192.031408,3.33333333 191.585978,3.33333333 L187.238516,3.33333333 C186.78566,3.33333333 186.418548,3.70814672 186.418548,4.15970422 L186.418548,13.0382298 C186.418548,13.4946219 186.04672,13.8646007 185.598758,13.8646007 L176.79094,13.8646007 C176.338182,13.8646007 175.97115,14.240945 175.97115,14.6906683 L175.97115,19.3572936 C175.97115,19.8135181 176.342978,20.1833612 176.79094,20.1833612 L185.598758,20.1833612 C186.051516,20.1833612 186.418548,20.5559698 186.418548,21.004871 L186.418548,29.83117 C186.418548,30.2848774 186.793087,30.6526799 187.238516,30.6526799 L191.585978,30.6526799 C192.038834,30.6526799 192.405946,30.2800713 192.405946,29.83117 L192.405946,21.004871 C192.405946,20.5511637 192.777775,20.1833612 193.225736,20.1833612 L202.033555,20.1833612 Z" id="Path" fill="url(#linearGradient-1)"></path>
            </g>
        </g>
    </g>
</svg>