<?xml version="1.0" encoding="UTF-8" standalone="no"?>
<svg width="168px" height="168px" viewBox="0 0 168 168" version="1.1" xmlns="http://www.w3.org/2000/svg" xmlns:xlink="http://www.w3.org/1999/xlink">
    <!-- Generator: sketchtool 3.8.2 (29753) - http://www.bohemiancoding.com/sketch -->
    <title>F468468F-8530-4326-AD78-6F344017DC51</title>
    <desc>Created with sketchtool.</desc>
    <defs>
        <linearGradient x1="50%" y1="0%" x2="50%" y2="100%" id="linearGradient-1">
            <stop stop-color="#A7D8B3" offset="0%"></stop>
            <stop stop-color="#54B8B7" offset="100%"></stop>
        </linearGradient>
    </defs>
    <g id="LOG-IN-+-SIGN-UP" stroke="none" stroke-width="1" fill="none" fill-rule="evenodd">
        <g id="LOG-IN-" transform="translate(-636.000000, -376.000000)">
            <g id="Group" transform="translate(501.000000, 376.000000)">
                <g id="Group-7" transform="translate(135.000000, 0.000000)">
                    <circle id="Oval-6" fill="#1D2E39" cx="84" cy="84" r="84"></circle>
                    <g id="LOGO" transform="translate(34.400000, 56.000000)">
                        <path d="M29.5442574,32.8895761 C29.8371379,33.5409939 30.1225234,34.2022379 30.4007021,34.8733081 C30.5771222,35.2990128 31.1821971,35.2967007 31.3548697,34.869551 C31.6359312,34.1739154 31.9244876,33.488684 32.2208273,32.8141458 C32.6858038,31.7558086 33.1824898,30.7480473 33.7111736,29.789706 L47.8129636,1.96572691 C48.0643334,1.48742325 48.3229099,1.11547351 48.586387,0.850744712 C48.8507289,0.586304921 49.145339,0.390937382 49.4725234,0.264642094 C49.7991312,0.139213822 50.169844,0.063205445 50.5846619,0.0377729843 C50.9994798,0.0132075393 51.4831937,-8.67015707e-05 52.0363803,-8.67015707e-05 L61.247701,-8.67015707e-05 C61.5333747,-8.67015707e-05 61.7651423,0.232273508 61.7651423,0.518966702 L61.7651423,54.5617897 C61.7651423,54.8481939 61.5333747,55.0805541 61.247701,55.0805541 L51.0458909,55.0805541 C50.7599289,55.0805541 50.5281613,54.8481939 50.5281613,54.5617897 L50.5281613,23.4006672 C50.5281613,22.6007007 50.5486284,21.7663426 50.5895625,20.8978819 C50.6157949,20.3395238 49.8686038,20.1349081 49.6131982,20.6317081 L36.1995044,46.7259908 C35.7469234,47.6083238 35.1375245,48.2759259 34.3707312,48.7293751 C33.6039379,49.1831133 32.7299088,49.4099824 31.7495088,49.4099824 L30.0155759,49.4099824 C29.0351759,49.4099824 28.1614351,49.1831133 27.3946418,48.7293751 C26.6278485,48.2759259 26.0181613,47.6083238 25.5655803,46.7259908 L12.1360317,20.7004913 C11.8780317,20.2005123 11.1270932,20.4123531 11.160244,20.9741793 C11.1608206,20.9828494 11.1611088,20.9915196 11.1616854,21.0001897 C11.2115558,21.8698065 11.2369234,22.670351 11.2369234,23.4006672 L11.2369234,54.5617897 C11.2369234,54.8481939 11.0051558,55.0805541 10.719482,55.0805541 L0.517671955,55.0805541 C0.231709944,55.0805541 -5.76536313e-05,54.8481939 -5.76536313e-05,54.5617897 L-5.76536313e-05,0.518966702 C-5.76536313e-05,0.232273508 0.231709944,-8.67015707e-05 0.517671955,-8.67015707e-05 L9.72899263,-8.67015707e-05 C10.2813144,-8.67015707e-05 10.7656049,0.0132075393 11.1804228,0.0377729843 C11.5955289,0.063205445 11.9662418,0.139213822 12.2925613,0.264642094 C12.6191692,0.390937382 12.914644,0.586304921 13.1789859,0.850744712 C13.4433278,1.11547351 13.7001747,1.48742325 13.9521211,1.96572691 L28.092539,29.903285 C28.5949904,30.8610484 29.0787044,31.8566714 29.5442574,32.8895761" id="Fill-1" fill="#FEFEFE"></path>
                        <path d="M88.7075779,11.5639954 L88.7075779,23.3080121 C88.7075779,24.2258928 89.4498684,24.9697923 90.365408,24.9697923 L101.336894,24.9697923 C102.252434,24.9697923 102.994436,25.7139807 102.994436,26.6318614 L102.994436,28.4132896 C102.994436,29.3311703 102.252434,30.0750697 101.336894,30.0750697 L90.365408,30.0750697 C89.4498684,30.0750697 88.7075779,30.8192582 88.7075779,31.7371388 L88.7075779,43.5167032 C88.7075779,44.4345839 87.9652874,45.1787724 87.0497477,45.1787724 L84.8839891,45.1787724 C83.9684494,45.1787724 83.2261589,44.4345839 83.2261589,43.5167032 L83.2261589,31.7371388 C83.2261589,30.8192582 82.4838684,30.0750697 81.5683287,30.0750697 L70.6680449,30.0750697 C69.7525053,30.0750697 69.0102147,29.3311703 69.0102147,28.4132896 L69.0102147,26.6318614 C69.0102147,25.7139807 69.7525053,24.9697923 70.6680449,24.9697923 L81.5683287,24.9697923 C82.4838684,24.9697923 83.2261589,24.2258928 83.2261589,23.3080121 L83.2261589,11.5639954 C83.2261589,10.6461148 83.9684494,9.90192628 84.8839891,9.90192628 L87.0497477,9.90192628 C87.9652874,9.90192628 88.7075779,10.6461148 88.7075779,11.5639954" id="Fill-4" fill="url(#linearGradient-1)"></path>
                    </g>
                </g>
            </g>
        </g>
    </g>
</svg>